# xmcd CD database file
#
# Track frame offsets:
#	150
#	16965
#	32737
#	55622
#	71927
#	91497
#	110002
#	126997
#	143277
#	161122
#	180317
#	196835
#	212270
#
# Disc length: 2980 seconds
#
# Revision: 0
# Processed by: cddbd v1.5.1PL0 Copyright (c) Steve Scherf et al.
# Submitted via: CDex 1.51
#
DISCID=ac0ba20d
DTITLE=WARRANT - Dog Eat Dog
DYEAR=1992
DGENRE=Hard Rock
TTITLE0=Machine Gun
TTITLE1=The Hole In My Wall
TTITLE2=April 2031
TTITLE3=Andy Warhol Was Right
TTITLE4=Bonfire
TTITLE5=The Bitter Pill
TTITLE6=Hollywood (So Far, So Good)
TTITLE7=All My Bridges Are Burning
TTITLE8=Quicksand
TTITLE9=Let It Rain
TTITLE10=Inside Out
TTITLE11=Sad Theresa
TTITLE12=Lincolns, Mercurys And Fords
EXTD=YEAR: 1992
EXTT0=
EXTT1=
EXTT2=
EXTT3=
EXTT4=
EXTT5=
EXTT6=
EXTT7=
EXTT8=
EXTT9=
EXTT10=
EXTT11=
EXTT12=
PLAYORDER=
